<svg id="Layer_1" data-name="Layer 1" xmlns="http://www.w3.org/2000/svg" viewBox="0 0 2449 1024"><defs><style>.cls-1{fill:#fff;}.cls-2{fill:#5055a0;}.cls-3{fill:#dcdcdc;}.cls-4{fill:#393939;}</style></defs><g id="Logo"><rect class="cls-1" x="118.74" y="346.54" width="597.84" height="434.68"/><g id="Flag"><path class="cls-2" d="M843.21,360.35v14.37C688.62,382.06,534,451.78,379.43,496.57Q374.72,468,370,439.3C516,398,662,332.87,808,317.47Q825.62,338.41,843.21,360.35Z"/><path class="cls-2" d="M196.15,472.62A528.35,528.35,0,0,1,107,472l-.47-.45V352.07a515.09,515.09,0,0,0,70.79,1.74Q186.76,413.38,196.15,472.62Z"/><path class="cls-2" d="M118,629.36q8.61,12.33,17.23,24.37a575.73,575.73,0,0,0,89.13-4Q215,590.92,205.56,531.82a543.53,543.53,0,0,1-89.12.95q-5.09,10.49-10.16,20.87Q112.15,591.57,118,629.36Z"/><path class="cls-2" d="M843.21,434.68v60c-186.8,8.87-373.6,108.81-560.4,145.79Q273.41,582.34,264,524c38.47-6.71,76.94-16.31,115.42-27.45q4.69,28.62,9.41,57.2C540.3,508.94,691.75,441.88,843.21,434.68Z"/><path class="cls-2" d="M843.21,554.59v60C613.49,625.46,383.77,774.1,154.05,774q-7.1-8-14.2-16.14-2.23-14.36-4.48-28.72,4.63-7.54,9.28-15.18C377.5,718.22,610.36,565.65,843.21,554.59Z"/><path class="cls-2" d="M843.21,674.51v47.43c-129.48,6.15-259,56.06-388.43,98.42C365.21,833.85,275.63,843.74,186.06,833,405.11,820.55,624.16,684.92,843.21,674.51Z"/><path class="cls-2" d="M843.21,707.49v27c-92.32,4.38-184.65,31-277,61.29-52,8.08-104.09,17.32-156.13,24.39C554.48,775.6,698.84,714.35,843.21,707.49Z"/><path class="cls-2" d="M118.35,712.78q13.16.93,26.3,1.17,4.69,30.06,9.4,60-13.14,0-26.3-.68Q123.06,743.1,118.35,712.78Z"/><path class="cls-2" d="M360.63,382q4.69,28.68,9.4,57.33c-38.48,10.89-77,20.12-115.43,26.34q-9.4-58.42-18.8-117.11l4.81-.67c125.89,2,251.78-29.77,377.67-48.31C532.4,325.83,446.51,358.3,360.63,382Z"/><path class="cls-2" d="M90.14,530.07q13.14,1.73,26.3,2.7,9.39,60.66,18.8,121-13.14-.48-26.3-1.66Q99.55,591.26,90.14,530.07Z"/></g><rect class="cls-3" x="373.08" y="104.07" width="21.92" height="205.77" rx="7" transform="translate(797.21 66.92) rotate(132.96)"/><rect class="cls-3" x="529.07" y="104.24" width="21.92" height="205.77" rx="7" transform="translate(323.61 -329.25) rotate(47.04)"/><circle class="cls-3" cx="460.27" cy="289.92" r="45.66"/><path class="cls-4" d="M782.94,289.92H142.48A60.91,60.91,0,0,0,82,343.44a61.76,61.76,0,0,0-.44,7.36V778.18A60.86,60.86,0,0,0,141.15,839c.44,0,.89,0,1.33,0H782.94a60.88,60.88,0,0,0,60.88-60.88V350.8A60.88,60.88,0,0,0,782.94,289.92ZM205.8,772.09a60.88,60.88,0,0,1-60.88-60.88V417.77a60.88,60.88,0,0,1,60.88-60.88H618.56a60.88,60.88,0,0,1,60.88,60.88V711.21a60.88,60.88,0,0,1-60.88,60.88Z"/><path class="cls-3" d="M756.15,407.42A29.83,29.83,0,1,0,786,437.25,29.84,29.84,0,0,0,756.15,407.42Zm-.61,48.7A19.48,19.48,0,1,1,775,436.64,19.47,19.47,0,0,1,755.54,456.12Z"/><rect class="cls-3" x="716.58" y="619.28" width="79.14" height="31.66" rx="13"/><rect class="cls-3" x="716.58" y="697.21" width="79.14" height="31.66" rx="13"/><path class="cls-3" d="M756,512.92a29.84,29.84,0,1,0,29.83,29.83A29.83,29.83,0,0,0,756,512.92Zm-.61,48.71a19.49,19.49,0,1,1,19.48-19.48A19.48,19.48,0,0,1,755.34,561.63Z"/></g><g id="Text"><path class="cls-3" d="M1164.61,507.42h83V626.15a265.9,265.9,0,0,1-39.41,9.35,300.67,300.67,0,0,1-46.42,3.17q-55.44,0-86.34-33t-30.89-92.43q0-38.07,15.28-66.71a103.33,103.33,0,0,1,44-43.75q28.73-15.12,67.3-15.12,39.08,0,72.81,14.37l-11,25q-33.06-14-63.63-14-44.58,0-69.63,26.55t-25.05,73.64q0,49.44,24.13,75t70.89,25.55a210.37,210.37,0,0,0,49.59-5.84V532.8h-54.6Z"/><path class="cls-3" d="M1385.54,449a109,109,0,0,1,21.88,2l-3.85,25.72a94.37,94.37,0,0,0-20-2.5q-22.21,0-38,18t-15.78,44.92v98.19H1302v-183h22.88l3.17,33.9h1.34q10.18-17.86,24.55-27.55A55.22,55.22,0,0,1,1385.54,449Z"/><path class="cls-3" d="M1519,638.67q-40.59,0-64-24.71t-23.46-68.64q0-44.25,21.79-70.3t58.54-26q34.39,0,54.43,22.63t20,59.7v17.53H1460.18q.84,32.24,16.29,48.93t43.5,16.7a147.46,147.46,0,0,0,58.45-12.36v24.72a147,147,0,0,1-27.81,9.1Q1537.5,638.67,1519,638.67Zm-7.52-166.49q-22,0-35.15,14.36t-15.45,39.75h95.69q0-26.22-11.69-40.16T1511.45,472.18Z"/><path class="cls-3" d="M1710.84,638.67q-40.58,0-64-24.71t-23.46-68.64q0-44.25,21.79-70.3t58.53-26q34.39,0,54.44,22.63t20,59.7v17.53H1652.06q.82,32.24,16.28,48.93t43.5,16.7a147.39,147.39,0,0,0,58.45-12.36v24.72a147.2,147.2,0,0,1-27.8,9.1Q1729.37,638.67,1710.84,638.67Zm-7.51-166.49q-22,0-35.16,14.36t-15.44,39.75h95.68q0-26.22-11.69-40.16T1703.33,472.18Z"/><path class="cls-3" d="M1852.78,541.65q7.18-10.18,21.88-26.72l59.11-62.62h32.9l-74.14,78,79.32,105h-33.57l-64.62-86.5-20.88,18v68.46H1825.4V375.49h27.38V513.26q0,9.19-1.33,28.39Z"/><path class="cls-3" d="M2073.71,635.33h-17.2V407.22h-79.32v-16H2153v16h-79.33Z"/><path class="cls-3" d="M2333.55,391.19h18.54l-91.34,244.14h-15l-91-244.14h18.2l61.45,166.16q14,37.57,18.87,56.44,3.34-12.52,13.19-38.91Z"/></g></svg>